<svg width="132" height="38" viewBox="0 0 132 38" fill="none" xmlns="http://www.w3.org/2000/svg">
<g clip-path="url(#clip0_2_61)" filter="url(#filter0_d_2_61)">
<path d="M125.75 25.9059C125.213 25.9111 124.701 26.1284 124.324 26.5105C123.948 26.8925 123.738 27.4081 123.74 27.9445C123.743 28.4809 123.958 28.9944 124.338 29.3728C124.718 29.7512 125.233 29.9636 125.769 29.9636C126.306 29.9636 126.82 29.7512 127.201 29.3728C127.581 28.9944 127.796 28.4809 127.798 27.9445C127.801 27.4081 127.591 26.8925 127.214 26.5105C126.838 26.1284 126.325 25.9111 125.789 25.9059H125.75ZM125.75 29.7314C125.398 29.7372 125.052 29.6386 124.757 29.448C124.461 29.2574 124.228 28.9834 124.088 28.6606C123.948 28.3378 123.907 27.9807 123.97 27.6345C124.033 27.2883 124.197 26.9686 124.441 26.7156C124.686 26.4627 125 26.288 125.344 26.2137C125.688 26.1393 126.046 26.1685 126.374 26.2978C126.701 26.427 126.982 26.6504 127.183 26.9396C127.383 27.2289 127.493 27.5711 127.499 27.9229V27.9527C127.509 28.4143 127.335 28.8608 127.016 29.1942C126.696 29.5275 126.258 29.7204 125.796 29.7304H125.75L125.75 29.7314ZM117.962 25.3516H113.553V18.4475C113.553 16.8011 113.524 14.6818 111.26 14.6818C108.964 14.6818 108.613 16.4755 108.613 18.3276V25.3512H104.204V11.1535H108.436V13.0937H108.495C108.919 12.3695 109.531 11.7738 110.266 11.3699C111.002 10.966 111.833 10.7692 112.671 10.8003C117.14 10.8003 117.964 13.7394 117.964 17.563L117.962 25.3516ZM99.2295 9.21272C98.7235 9.21282 98.2288 9.06286 97.808 8.78181C97.3872 8.50077 97.0593 8.10126 96.8655 7.63381C96.6718 7.16636 96.6211 6.65196 96.7197 6.15566C96.8183 5.65936 97.0619 5.20345 97.4196 4.84559C97.7774 4.48773 98.2332 4.24398 98.7294 4.14517C99.2257 4.04637 99.7401 4.09694 100.208 4.2905C100.675 4.48405 101.075 4.8119 101.356 5.23257C101.637 5.65325 101.787 6.14786 101.787 6.65387C101.787 6.98984 101.721 7.32254 101.593 7.63296C101.464 7.94338 101.276 8.22545 101.038 8.46306C100.801 8.70067 100.519 8.88918 100.208 9.0178C99.8981 9.14643 99.5655 9.21266 99.2295 9.21272ZM101.434 25.3516H97.0206V11.1535H101.434V25.3516ZM120.16 0.00184329H94.8052C94.2297 -0.00465092 93.6752 0.21759 93.2635 0.619729C92.8518 1.02187 92.6166 1.57101 92.6096 2.14647V27.606C92.6164 28.1818 92.8514 28.7313 93.2631 29.1338C93.6748 29.5364 94.2294 29.7591 94.8052 29.7529H120.16C120.736 29.7602 121.293 29.5381 121.706 29.1356C122.119 28.733 122.356 28.1829 122.364 27.606V2.14463C122.356 1.56803 122.119 1.01827 121.706 0.616137C121.292 0.214008 120.736 -0.00759841 120.16 6.35056e-06V0.00184329ZM80.6102 14.5803C78.4059 14.5803 77.0833 16.0521 77.0833 18.1967C77.0833 20.3414 78.4054 21.8146 80.6102 21.8146C82.815 21.8146 84.1404 20.345 84.1404 18.1967C84.1404 16.0484 82.8173 14.5803 80.6102 14.5803ZM88.1991 25.3434H84.1404V23.4605H84.0802C83.571 24.1454 82.9106 24.7034 82.1504 25.0912C81.3901 25.4789 80.5506 25.6859 79.6973 25.6961C75.4613 25.6961 72.671 22.6389 72.671 18.3157C72.671 14.3451 75.1403 10.6993 79.1995 10.6993C81.024 10.6993 82.7282 11.1985 83.728 12.5821H83.7859V4.3981H88.1986L88.1991 25.3434ZM67.0104 16.5958C67.0189 16.2382 66.9546 15.8825 66.8216 15.5504C66.6885 15.2183 66.4894 14.9167 66.2363 14.6638C65.9833 14.4109 65.6815 14.212 65.3493 14.0791C65.0171 13.9463 64.6614 13.8823 64.3037 13.891C63.5334 13.843 62.7751 14.0997 62.1923 14.6057C61.6095 15.1117 61.2489 15.8264 61.1883 16.5958H67.0104ZM70.7449 22.8874C70.0124 23.7758 69.0913 24.4901 68.0486 24.9787C67.0059 25.4672 65.8676 25.7177 64.7161 25.7121C60.3074 25.7121 56.7778 22.7694 56.7778 18.2124C56.7778 13.6554 60.307 10.714 64.7161 10.714C68.8368 10.714 71.4209 13.6531 71.4209 18.2124V19.5947H61.1883C61.3157 20.3786 61.7221 21.0901 62.3327 21.598C62.9432 22.106 63.7168 22.3762 64.5108 22.3588C65.1383 22.3549 65.7549 22.1941 66.3044 21.8911C66.8539 21.5881 67.3189 21.1524 67.6571 20.6238L70.7449 22.8874ZM26.9183 11.1498H31.152V13.09H31.2121C31.635 12.3656 32.2467 11.7695 32.982 11.3656C33.7172 10.9617 34.5483 10.765 35.3866 10.7966C39.8572 10.7966 40.6802 13.738 40.6802 17.5593V25.3452H36.2715V18.4424C36.2715 16.7947 36.2412 14.6767 33.9754 14.6767C31.6838 14.6767 31.3302 16.4709 31.3302 18.3226V25.3434H26.9215L26.9183 11.1498ZM42.9158 4.39948H47.3244V16.9205L52.3209 11.142H57.7261L51.9397 17.715L57.6044 25.3521H52.0633L47.3832 18.3341H47.3253V25.3512H42.9167L42.9158 4.39948ZM20.0651 11.1484H24.4738V25.3461H20.0651V11.1484ZM22.2695 4.08996C22.7753 4.09005 23.2697 4.24012 23.6902 4.52119C24.1107 4.80227 24.4384 5.20172 24.6319 5.66905C24.8254 6.13638 24.876 6.65059 24.7773 7.14666C24.6785 7.64273 24.4349 8.09839 24.0772 8.45601C23.7196 8.81363 23.2639 9.05717 22.7678 9.15581C22.2717 9.25445 21.7575 9.20378 21.2902 9.0102C20.8229 8.81661 20.4235 8.48881 20.1425 8.06825C19.8615 7.64768 19.7115 7.15324 19.7115 6.64744C19.7115 6.31154 19.7777 5.97894 19.9062 5.66862C20.0348 5.35831 20.2232 5.07635 20.4607 4.83886C20.6983 4.60137 20.9803 4.413 21.2906 4.2845C21.6009 4.156 21.9336 4.0899 22.2695 4.08996ZM4.95123 4.40269H9.54037V21.1189H18.0362V25.3539H4.95123V4.40269ZM126.072 28.0634C126.147 28.0642 126.222 28.0494 126.292 28.02C126.361 27.9906 126.424 27.9473 126.476 27.8927C126.528 27.838 126.569 27.7732 126.595 27.7024C126.621 27.6315 126.632 27.556 126.627 27.4806C126.627 27.0673 126.378 26.8699 125.866 26.8699H125.04V29.0338H125.351V28.0905H125.733L125.742 28.102L126.334 29.0338H126.667L126.029 28.0694L126.072 28.0634ZM125.712 27.8467H125.352V27.1151H125.809C126.045 27.1151 126.314 27.1537 126.314 27.4627C126.314 27.8182 126.041 27.8467 125.71 27.8467" fill="white"/>
</g>
<defs>
<filter id="filter0_d_2_61" x="0.951233" y="0" width="130.847" height="38" filterUnits="userSpaceOnUse" color-interpolation-filters="sRGB">
<feFlood flood-opacity="0" result="BackgroundImageFix"/>
<feColorMatrix in="SourceAlpha" type="matrix" values="0 0 0 0 0 0 0 0 0 0 0 0 0 0 0 0 0 0 127 0" result="hardAlpha"/>
<feOffset dy="4"/>
<feGaussianBlur stdDeviation="2"/>
<feComposite in2="hardAlpha" operator="out"/>
<feColorMatrix type="matrix" values="0 0 0 0 0 0 0 0 0 0 0 0 0 0 0 0 0 0 0.25 0"/>
<feBlend mode="normal" in2="BackgroundImageFix" result="effect1_dropShadow_2_61"/>
<feBlend mode="normal" in="SourceGraphic" in2="effect1_dropShadow_2_61" result="shape"/>
</filter>
<clipPath id="clip0_2_61">
<rect width="122.847" height="30" fill="white" transform="translate(4.95123)"/>
</clipPath>
</defs>
</svg>
